<?xml version="1.0" standalone="no"?>
<!DOCTYPE svg PUBLIC "-//W3C//DTD SVG 20010904//EN"
 "http://www.w3.org/TR/2001/REC-SVG-20010904/DTD/svg10.dtd">
<svg version="1.0" xmlns="http://www.w3.org/2000/svg"
 width="350.000000pt" height="140.000000pt" viewBox="0 0 350.000000 140.000000"
 preserveAspectRatio="xMidYMid meet">

<g transform="translate(0.000000,140.000000) scale(0.100000,-0.100000)"
fill="#000000" stroke="none">
<path d="M280 1291 c-85 -26 -141 -87 -160 -174 -8 -35 -10 -172 -8 -427 3
-322 6 -380 20 -410 44 -95 105 -127 218 -116 91 8 149 36 205 98 67 75 77
116 82 361 l5 207 -43 0 c-24 0 -81 -3 -126 -7 l-83 -6 0 -79 0 -79 38 3 37 3
0 -125 c-1 -83 -5 -133 -14 -148 -16 -30 -73 -54 -106 -46 -54 13 -55 20 -55
391 0 233 4 350 11 367 23 49 106 58 144 16 12 -13 19 -44 22 -100 l6 -81 81
3 81 3 -2 88 c-4 147 -50 220 -160 253 -49 15 -152 17 -193 5z"/>
<path d="M750 760 l0 -532 68 7 c322 33 351 41 415 116 47 54 60 115 55 255
-3 100 -6 114 -30 151 -15 23 -41 47 -57 54 -17 8 -31 16 -31 19 0 3 13 13 29
23 50 29 76 98 75 198 0 115 -27 171 -99 209 -47 24 -59 25 -237 28 l-188 4 0
-532z m305 378 c17 -8 29 -24 36 -52 14 -53 5 -143 -17 -167 -19 -21 -73 -39
-116 -39 l-28 0 0 135 0 135 50 0 c27 0 61 -5 75 -12z m4 -409 c17 -6 36 -19
41 -29 6 -10 10 -66 10 -123 0 -127 -9 -142 -89 -157 -99 -18 -91 -32 -91 155
l0 165 49 0 c26 0 62 -5 80 -11z"/>
<path d="M1400 785 l0 -506 88 3 87 3 3 218 2 217 110 0 110 0 0 70 0 70 -110
0 -111 0 3 148 3 147 143 3 142 3 0 64 0 65 -235 0 -235 0 0 -505z"/>
<path d="M1950 787 l0 -504 191 -7 c105 -3 210 -9 235 -13 l44 -6 0 80 0 80
-46 7 c-26 3 -84 6 -130 6 -45 0 -89 3 -98 6 -14 5 -16 53 -16 430 l0 424 -90
0 -90 0 0 -503z"/>
<path d="M2490 770 l0 -520 29 0 c15 0 56 -3 90 -6 l61 -7 0 527 0 526 -90 0
-90 0 0 -520z"/>
<path d="M2770 1286 c0 -2 41 -115 90 -251 l90 -248 -49 -136 c-28 -75 -72
-200 -100 -278 l-49 -142 31 -6 c18 -3 56 -7 86 -8 l53 -2 70 215 c44 135 73
209 77 200 5 -8 36 -112 70 -230 34 -118 64 -220 66 -226 3 -11 175 -47 183
-39 7 6 -59 233 -129 452 l-59 181 90 256 c49 141 90 259 90 261 0 3 -37 5
-82 5 l-83 0 -65 -189 c-35 -105 -66 -189 -67 -188 -1 2 -31 86 -66 187 l-64
185 -91 3 c-51 1 -92 1 -92 -2z"/>
</g>
</svg>
